<svg xmlns="http://www.w3.org/2000/svg" viewBox="0 0 100 100" fill="none">
  <defs>
    <linearGradient id="gradient" x1="0%" y1="0%" x2="100%" y2="100%">
      <stop offset="0%" style="stop-color:#6366f1;stop-opacity:1" />
      <stop offset="100%" style="stop-color:#a855f7;stop-opacity:1" />
    </linearGradient>
  </defs>
  
  <!-- Cloud shape -->
  <path d="M 15 55 
           Q 10 50, 15 42 
           Q 18 35, 25 32 
           Q 32 30, 40 32 
           Q 45 30, 50 30 
           Q 55 30, 60 32 
           Q 65 30, 70 32 
           Q 78 35, 82 42 
           Q 90 45, 90 52 
           Q 90 60, 82 65 
           L 15 65 
           Q 10 60, 15 55 Z" 
        fill="url(#gradient)"/>
  
  <!-- Cloud highlights -->
  <ellipse cx="30" cy="42" rx="10" ry="8" fill="#fff" opacity="0.4"/>
  <ellipse cx="60" cy="40" rx="12" ry="9" fill="#fff" opacity="0.35"/>
  <ellipse cx="45" cy="38" rx="8" ry="6" fill="#fff" opacity="0.3"/>
</svg>

