<svg xmlns="http://www.w3.org/2000/svg" viewBox="0 0 100 100" fill="none">
  <defs>
    <linearGradient id="cloudGradient" x1="0%" y1="0%" x2="100%" y2="100%">
      <stop offset="0%" style="stop-color:#6366f1;stop-opacity:1" />
      <stop offset="100%" style="stop-color:#a855f7;stop-opacity:1" />
    </linearGradient>
  </defs>
  
  <!-- Cloud shape -->
  <path d="M 20 55 
           Q 15 50, 20 45 
           Q 22 40, 28 38 
           Q 32 35, 38 35 
           Q 42 35, 45 38 
           Q 50 32, 55 32 
           Q 60 32, 63 35 
           Q 68 32, 72 35 
           Q 78 38, 80 43 
           Q 85 45, 85 50 
           Q 85 55, 80 58 
           L 20 58 
           Q 15 55, 20 55 Z" 
        fill="url(#cloudGradient)" 
        stroke="url(#cloudGradient)" 
        stroke-width="1"/>
  
  <!-- Cloud highlights for depth -->
  <ellipse cx="35" cy="42" rx="8" ry="6" fill="#fff" opacity="0.3"/>
  <ellipse cx="60" cy="40" rx="10" ry="7" fill="#fff" opacity="0.25"/>
</svg>

